<svg xmlns="http://www.w3.org/2000/svg" viewBox="0 0 128 128" role="img" aria-labelledby="title">
  <title>Openbird</title>
  <rect width="128" height="128" rx="32" fill="#11291f" />
  <path d="M30 70c10-22 38-35 63-30-7 7-11 18-11 29 0 9 3 17 9 23-17 6-37 2-50-9-7-5-11-11-11-13Z" fill="#f4f0e5" />
  <path d="M65 25c13 8 20 18 20 31 0 8-2 15-5 20-8-5-13-15-13-26 0-10 3-18 8-25h-10Z" fill="#6bcf8f" />
  <circle cx="87" cy="53" r="5" fill="#11291f" />
  <path d="M42 82c8 9 19 13 34 11-12 9-29 12-43 5-5-2-9-6-12-11 7 0 14-2 21-5Z" fill="#ff7b47" />
</svg>
